<svg id="Layer_1" data-name="Layer 1" xmlns="http://www.w3.org/2000/svg" width="17" height="17" fill = "green" viewBox="0 0 455.52 756.63"><path d="M857.78,481.4c-30.4,0-91.39-65.77-141.87-153C670.29,249.6,645,173.63,654.5,143.66c1.78-5.61,4.76-9.42,8.86-11.32a16.38,16.38,0,0,1,6.91-1.42c30.4,0,91.39,65.77,141.87,153C857.76,362.72,883,438.7,873.55,468.66c-1.77,5.61-4.76,9.42-8.86,11.32A16.2,16.2,0,0,1,857.78,481.4Z" transform="translate(-420.48 -130)"/><path d="M670.27,130.42v1c14.43,0,36.64,15.3,62.53,43.07,26.26,28.17,54.28,67.12,78.91,109.67,45.56,78.7,70.79,154.51,61.36,184.35-1.73,5.47-4.62,9.18-8.59,11a15.86,15.86,0,0,1-6.7,1.37c-14.43,0-36.64-15.29-62.53-43.07C769,409.66,741,370.71,716.34,328.16c-45.56-78.7-70.79-154.51-61.36-184.35,1.73-5.47,4.62-9.18,8.59-11a15.86,15.86,0,0,1,6.7-1.37v-1m0,0a16.85,16.85,0,0,0-7.12,1.46c-26.81,12.43-3.39,100.53,52.32,196.78C766.76,417.28,827.54,481.9,857.78,481.9a16.85,16.85,0,0,0,7.12-1.46c26.81-12.43,3.39-100.53-52.32-196.78C761.29,195,700.51,130.42,670.27,130.42Z" transform="translate(-420.48 -130)"/><ellipse cx="244.5" cy="382.1" rx="85" ry="374.03"/><path d="M665,138.58c11.15,0,22,9.72,32.4,28.9,10.14,18.79,19.25,45.71,27.08,80,16.13,70.67,25,164.65,25,264.61s-8.89,193.94-25,264.61c-7.83,34.31-16.94,61.23-27.08,80C687,875.9,676.12,885.63,665,885.63s-22-9.73-32.4-28.91c-10.13-18.78-19.24-45.7-27.08-80-16.13-70.67-25-164.64-25-264.61s8.88-193.94,25-264.61c7.84-34.3,17-61.22,27.08-80,10.36-19.18,21.26-28.9,32.4-28.9m0-1c-47.21,0-85.49,167.68-85.49,374.52S617.76,886.63,665,886.63,750.47,719,750.47,512.1,712.19,137.58,665,137.58Z" transform="translate(-420.48 -130)"/><path d="M437.85,456a17.41,17.41,0,0,1-9.4-2.4c-3.67-2.32-6-6.29-7-11.83-5.29-30.61,31.24-103.14,88.83-176.38C571.78,187.24,639.52,130.5,671.4,130.5a17.41,17.41,0,0,1,9.4,2.4c3.67,2.31,6,6.29,7,11.82,5.29,30.62-31.24,103.15-88.83,176.39C537.47,399.28,469.72,456,437.85,456Z" transform="translate(-420.48 -130)"/><path d="M671.4,130v1h0a16.89,16.89,0,0,1,9.13,2.32c3.55,2.24,5.82,6.1,6.75,11.49,2.51,14.47-4.72,39.67-20.35,71-16.18,32.4-39.82,68.72-68.38,105-29.88,38-62.63,72.49-92.2,97.12-29.1,24.25-53.43,37.6-68.5,37.6a17,17,0,0,1-9.13-2.32c-3.55-2.24-5.82-6.11-6.75-11.49-2.51-14.48,4.72-39.67,20.34-71,16.18-32.4,39.83-68.72,68.39-105,29.88-38,62.62-72.5,92.2-97.13C632,144.35,656.33,131,671.4,131v-1m0,0c-31.4,0-99.15,55.83-161.49,135.1C440.08,353.9,403.49,438.49,428.19,454a17.8,17.8,0,0,0,9.66,2.48c31.39,0,99.15-55.83,161.49-135.1,69.83-88.8,106.42-173.39,81.72-189A17.88,17.88,0,0,0,671.4,130Z" transform="translate(-420.48 -130)"/></svg>